<?xml version="1.0" encoding="iso-8859-1"?>
<!-- Generator: Adobe Illustrator 19.0.0, SVG Export Plug-In . SVG Version: 6.00 Build 0)  -->
<svg version="1.1" id="&#x56FE;&#x5C42;_1" xmlns="http://www.w3.org/2000/svg" xmlns:xlink="http://www.w3.org/1999/xlink" x="0px"
	 y="0px" viewBox="0 0 100 100" style="enable-background:new 0 0 100 100;" xml:space="preserve">
<g id="XMLID_184_">
	<g id="XMLID_165_">
		<path id="XMLID_155_" style="fill:#FFFFFF;" d="M47.036,31.682c0,0,9.337-14.97,15.234-7.485c0,0,11.794,11.228,0,36.178
			L47.036,82.831V31.682z"/>
		<path id="XMLID_156_" style="fill:#BDCCE9;" d="M62.748,24.197c0,0,10.32-4.4,16.217,14.018
			c5.897,18.418-31.451,44.616-31.451,44.616S64.99,59.157,66.461,50.514S69.382,31.89,62.748,24.197z"/>
		<path id="XMLID_157_" style="fill:#9AACD8;" d="M65.681,28.912l12.457,18.939c0,0-14.345,24.421-31.101,34.98
			C47.036,82.831,75.701,50.806,65.681,28.912z"/>
		<path id="XMLID_158_" style="fill:#A4B3D8;" d="M70.924,25.104c0,0,14.688,2.788,16.653,18.575
			c1.966,15.787-18.182,24.628-18.182,24.628S47.527,81.567,47.036,82.83c-0.491,1.263,28.045-20.839,32.082-38.31
			C79.118,44.521,78.842,30.736,70.924,25.104z"/>
		<path id="XMLID_159_" style="fill:#8DA6CC;" d="M76.075,31.882l9.717,14.091c0,0-0.284,11.788-12.461,19.198
			c-12.177,7.41-26.307,17.155-26.307,17.155s27.244-18.718,31.441-37.648C78.464,44.677,79.361,36.316,76.075,31.882z"/>
	</g>
	<g id="XMLID_166_">
		<path id="XMLID_183_" style="fill:#FFFFFF;" d="M47.035,31.845c0,0-8.304-14.949-13.549-7.474c0,0-10.489,11.211,0,36.126
			L47.035,82.92V31.845z"/>
		<path id="XMLID_182_" style="fill:#BDCCE9;" d="M33.061,24.371c0,0-9.178-4.394-14.423,13.997S46.61,82.92,46.61,82.92
			S31.067,59.28,29.759,50.65C28.451,42.02,27.161,32.053,33.061,24.371z"/>
		<path id="XMLID_181_" style="fill:#9AACD8;" d="M30.453,29.079L19.374,47.99c0,0,12.758,24.386,27.661,34.929
			C47.035,82.92,21.541,50.941,30.453,29.079z"/>
		<path id="XMLID_180_" style="fill:#A4B3D8;" d="M25.789,25.276c0,0-13.063,2.784-14.811,18.548s16.171,24.592,16.171,24.592
			s19.449,13.242,19.886,14.503S22.092,62.11,18.502,44.665C18.502,44.665,18.748,30.9,25.789,25.276z"/>
		<path id="XMLID_179_" style="fill:#8DA6CC;" d="M21.208,32.044l-8.642,14.07c0,0,0.253,11.77,11.083,19.17
			s23.398,17.13,23.398,17.13S22.816,63.724,19.083,44.821C19.083,44.821,18.286,36.472,21.208,32.044z"/>
	</g>
</g>
</svg>
