<?xml version="1.0" encoding="iso-8859-1"?>
<!-- Generator: Adobe Illustrator 19.0.0, SVG Export Plug-In . SVG Version: 6.00 Build 0)  -->
<svg version="1.1" id="&#x56FE;&#x5C42;_1" xmlns="http://www.w3.org/2000/svg" xmlns:xlink="http://www.w3.org/1999/xlink" x="0px"
	 y="0px" viewBox="0 0 1980 1080" style="enable-background:new 0 0 1980 1080;" xml:space="preserve">
<g id="XMLID_11_">
	
		<linearGradient id="XMLID_2_" gradientUnits="userSpaceOnUse" x1="1879.0642" y1="2675.4089" x2="1879.0642" y2="2257.9736" gradientTransform="matrix(-0.0192 0.9998 -0.9998 -0.0192 2711.7529 -916.7093)">
		<stop  offset="0" style="stop-color:#9B76B2"/>
		<stop  offset="1" style="stop-color:#8580BC"/>
	</linearGradient>
	<path id="XMLID_12_" style="fill:url(#XMLID_2_);" d="M-0.5,1075.841l414.272,3.326c0,0,20.746-122.246-81.083-155.779
		S273.986,606.941,2.136,839.933"/>
	
		<linearGradient id="XMLID_3_" gradientUnits="userSpaceOnUse" x1="1684.5468" y1="2489.8423" x2="2043.4329" y2="2489.8423" gradientTransform="matrix(4.489659e-11 1 -1 4.489659e-11 2676.1138 -964.6005)">
		<stop  offset="0" style="stop-color:#573892"/>
		<stop  offset="1" style="stop-color:#4A2F8E"/>
	</linearGradient>
	<path id="XMLID_13_" style="fill:url(#XMLID_3_);" d="M373.043,1078.832c-0.666-44.744-14.359-127.397-102.576-154.361
		C166.999,892.845,182.416,649.085-0.5,740.227l0.303,338.605"/>
</g>
<linearGradient id="XMLID_4_" gradientUnits="userSpaceOnUse" x1="1067.2683" y1="769.1386" x2="1067.2683" y2="-1.1675" gradientTransform="matrix(-1.4838 0 0 1 3450.0627 0)">
	<stop  offset="0" style="stop-color:#9B76B2"/>
	<stop  offset="1" style="stop-color:#8580BC"/>
</linearGradient>
<path id="XMLID_275_" style="fill:url(#XMLID_4_);" d="M1979.729-1.168c0,0-201.073,96.55-224.903,312.968
	s202.562,251.289,224.903,457.338V-1.168z"/>
<linearGradient id="XMLID_5_" gradientUnits="userSpaceOnUse" x1="-180.199" y1="1392.9302" x2="-180.199" y2="1257.3822" gradientTransform="matrix(1.6442 0.6666 0.3504 -1.1868 1718.599 2700.3467)">
	<stop  offset="0" style="stop-color:#9B76B2"/>
	<stop  offset="1" style="stop-color:#8580BC"/>
</linearGradient>
<path id="XMLID_16_" style="fill:url(#XMLID_5_);" d="M1974.601,1078.833c4.445-19.526-7.154-43.979-42.842-63.675
	c-103.343-57.034-89.965-115.838-89.965-115.838s-115.926,73.104-10.633,171.449c3.051,2.85,6.096,5.535,9.131,8.063
	L1974.601,1078.833"/>
<linearGradient id="XMLID_6_" gradientUnits="userSpaceOnUse" x1="1884.5642" y1="2138.7134" x2="2102.6167" y2="2138.7134" gradientTransform="matrix(-0.8534 0 0 -0.8461 3588.7534 2761.8159)">
	<stop  offset="0" style="stop-color:#573892"/>
	<stop  offset="1" style="stop-color:#4A2F8E"/>
</linearGradient>
<path id="XMLID_15_" style="fill:url(#XMLID_6_);" d="M1980.5,1078.833v-253.29c-4.686,43.157-22.708,63.239-22.708,63.239
	c-75.293,60.224-168.372-72.269-163.165,52.194c4.723,112.901,65.139,101.915,102.749,137.858L1980.5,1078.833z"/>
<linearGradient id="XMLID_7_" gradientUnits="userSpaceOnUse" x1="2537.5693" y1="342.0321" x2="2643.5339" y2="342.0321" gradientTransform="matrix(-0.8574 0 0 1 2265.9954 0)">
	<stop  offset="0" style="stop-color:#573892"/>
	<stop  offset="1" style="stop-color:#4A2F8E"/>
</linearGradient>
<path id="XMLID_257_" style="fill:url(#XMLID_7_);" d="M-0.5,175.069c0,0,20.652,36.112,65.994,107.73S97.151,502.059-0.5,508.995
	V175.069z"/>
</svg>
